<?xml version="1.0" standalone="no"?>
<!DOCTYPE svg PUBLIC "-//W3C//DTD SVG 20010904//EN"
 "http://www.w3.org/TR/2001/REC-SVG-20010904/DTD/svg10.dtd">
<svg version="1.0" xmlns="http://www.w3.org/2000/svg"
 width="1375.000000pt" height="1042.000000pt" viewBox="0 0 1375.000000 1042.000000"
 preserveAspectRatio="xMidYMid meet">

<g transform="translate(0.000000,1042.000000) scale(0.100000,-0.100000)"
fill="#000000" stroke="none">
<path d="M792 9373 c-27 -11 -36 -53 -42 -210 -6 -173 -14 -200 -47 -171 -51
45 -272 65 -362 33 -133 -46 -178 -157 -168 -408 8 -208 58 -317 174 -373 74
-37 176 -39 268 -6 74 27 131 28 170 2 108 -72 129 23 129 600 1 412 -4 490
-35 521 -18 18 -58 24 -87 12z m-159 -476 c54 -23 68 -64 74 -217 6 -137 -7
-232 -34 -263 -23 -25 -131 -77 -161 -77 -33 0 -104 70 -135 133 -53 109 -55
268 -4 362 31 57 94 88 167 82 30 -3 72 -12 93 -20z"/>
<path d="M1225 9366 c-86 -37 -51 -146 47 -146 48 0 78 28 78 73 0 60 -66 98
-125 73z"/>
<path d="M1202 9027 c-24 -29 -33 -126 -42 -441 -16 -553 -17 -560 -119 -580
-51 -9 -81 -32 -81 -61 0 -37 40 -57 124 -63 221 -14 250 75 244 743 -3 325
-5 364 -21 388 -14 22 -25 27 -56 27 -21 0 -43 -6 -49 -13z"/>
<path d="M1703 9025 c-25 -10 -33 -20 -33 -39 0 -38 36 -55 136 -67 230 -26
257 -36 270 -92 9 -42 -26 -71 -103 -87 -199 -41 -280 -76 -341 -145 -75 -85
-78 -196 -9 -287 68 -89 194 -112 341 -64 99 33 145 33 183 3 64 -53 83 -38
110 84 32 149 15 411 -38 571 -30 93 -43 106 -124 123 -93 20 -347 20 -392 0z
m326 -406 c37 -13 51 -35 51 -80 0 -75 -73 -167 -152 -191 -33 -10 -41 -8 -82
16 -44 26 -96 95 -96 128 0 25 38 66 87 94 70 42 135 53 192 33z"/>
<path d="M2637 9033 l-138 -4 3 -372 c5 -412 8 -437 59 -437 63 0 81 47 109
291 31 269 63 354 148 391 63 28 137 21 168 -16 39 -44 46 -92 54 -361 4 -143
10 -268 15 -278 12 -29 39 -37 124 -37 79 0 81 1 81 24 0 71 -32 530 -41 586
-18 115 -56 173 -129 200 -38 14 -229 19 -453 13z"/>
<path d="M3625 9026 c-35 -10 -59 -25 -82 -52 -86 -98 -102 -203 -46 -293 71
-113 65 -197 -26 -396 -44 -96 -46 -104 -46 -195 0 -124 17 -157 95 -184 78
-27 341 -34 463 -13 135 24 162 49 179 172 14 93 -1 197 -32 229 -41 45 -207
85 -348 86 -63 0 -132 20 -132 39 0 24 52 54 145 83 178 55 263 114 305 210
18 43 21 61 15 118 -8 81 1 103 53 128 49 23 52 46 10 63 -50 19 -487 23 -553
5z m222 -102 c51 -38 93 -102 93 -139 0 -41 -51 -120 -91 -141 -45 -23 -103
-13 -141 23 -70 66 -91 162 -49 222 54 75 120 87 188 35z m133 -740 c19 -11
42 -32 50 -47 14 -25 13 -30 -5 -64 -37 -69 -118 -105 -235 -106 -77 0 -129
15 -187 55 -50 34 -62 67 -39 103 40 61 120 86 271 82 90 -2 116 -6 145 -23z"/>
<path d="M4533 9030 c-35 -11 -105 -85 -133 -140 -41 -82 -55 -144 -55 -245 0
-204 87 -342 254 -406 120 -46 279 -23 366 53 88 77 152 260 143 402 -11 146
-72 250 -182 306 -69 35 -70 35 -215 37 -80 1 -160 -2 -178 -7z m297 -138 c25
-12 42 -32 59 -66 22 -43 25 -63 25 -160 0 -152 -19 -215 -85 -278 -43 -42
-54 -48 -91 -48 -50 1 -131 41 -160 80 -27 37 -41 149 -35 270 8 129 20 175
54 197 52 35 165 37 233 5z"/>
<path d="M8320 7391 c-110 -9 -195 -34 -335 -101 -271 -130 -530 -370 -621
-576 -53 -121 -79 -360 -63 -601 10 -166 27 -260 73 -401 46 -142 49 -157 32
-171 -8 -6 -60 -16 -117 -21 -123 -11 -1071 -13 -1916 -3 l-600 6 -6 236 c-4
130 -10 406 -13 614 l-7 377 896 0 897 0 0 315 0 315 -1250 0 -1250 0 0 -1972
0 -1971 -212 6 c-117 4 -347 10 -510 13 l-298 7 -143 221 c-333 512 -667 1077
-667 1129 0 31 54 78 198 174 332 220 492 443 568 793 26 118 26 422 0 565
-61 339 -209 582 -459 753 -255 175 -522 232 -1212 257 -144 5 -1165 35 -1208
35 -16 0 -17 -113 -15 -2277 l3 -2278 373 -3 372 -2 0 920 0 920 348 0 347 0
350 -567 c516 -836 743 -1171 929 -1370 82 -88 174 -156 237 -175 57 -17 108
2 408 148 l254 124 1419 0 1418 0 0 314 0 313 -547 7 c-302 3 -700 9 -885 12
l-338 7 0 708 0 709 253 0 c138 0 931 5 1761 10 l1509 10 281 -139 c467 -232
586 -324 682 -526 92 -194 84 -353 -27 -519 -98 -147 -229 -240 -404 -288 -70
-19 -107 -22 -295 -22 -230 -1 -303 7 -590 65 -197 39 -373 88 -536 150 -74
28 -138 48 -141 45 -8 -8 -42 -429 -43 -529 0 -49 5 -97 11 -108 14 -27 104
-66 279 -124 294 -96 426 -109 989 -102 425 6 476 11 633 62 468 154 768 475
864 925 37 178 27 476 -22 648 -52 181 -117 284 -270 432 -168 161 -366 284
-859 535 -459 233 -597 316 -709 429 -106 107 -143 213 -133 386 10 182 74
311 202 408 143 107 309 147 580 139 241 -8 409 -41 745 -147 166 -53 196 -60
205 -47 5 8 25 36 43 61 19 28 47 53 68 62 67 28 234 33 1047 34 l817 0 0
-1960 0 -1960 353 2 352 3 3 1958 2 1957 645 0 645 0 0 314 0 313 -1757 7
c-967 3 -2158 8 -2648 10 -489 2 -933 1 -985 -3z m3515 -101 c638 -9 1720 -37
1763 -46 22 -4 22 -5 22 -204 l0 -200 -642 -2 -643 -3 -3 -1957 -2 -1958 -270
0 -270 0 0 1960 0 1960 -607 -1 c-335 0 -772 -4 -973 -9 -383 -9 -459 -18
-487 -57 -49 -67 -67 -68 -258 -13 -184 54 -330 78 -545 91 -198 12 -471 4
-573 -16 -96 -20 -160 -58 -252 -150 -125 -125 -163 -223 -172 -442 -10 -231
26 -334 161 -469 133 -132 267 -213 781 -472 465 -234 663 -357 805 -501 125
-126 193 -261 226 -446 24 -139 25 -499 1 -598 -54 -218 -233 -464 -438 -600
-320 -212 -818 -306 -1337 -252 -280 30 -472 68 -694 141 l-140 46 4 201 c5
239 9 253 71 243 23 -4 160 -36 304 -72 419 -103 705 -143 928 -129 294 18
473 83 618 226 62 62 85 93 116 160 114 242 109 458 -13 643 -116 174 -316
315 -745 523 l-234 113 -1833 0 -1834 0 0 -810 0 -810 895 0 895 0 0 -230 0
-230 -1397 0 -1398 -1 -294 -148 -295 -149 -94 76 c-52 42 -124 110 -159 151
-129 151 -330 448 -673 996 -201 320 -445 684 -527 785 -50 61 -79 88 -104 97
-30 9 -245 27 -717 59 l-92 7 0 -937 0 -936 -250 0 -250 0 0 2180 0 2179 213
-5 c1533 -35 1574 -39 1865 -179 168 -81 260 -145 360 -249 167 -174 245 -376
259 -666 11 -248 -28 -482 -106 -639 -59 -118 -93 -165 -195 -267 -91 -90
-269 -217 -464 -329 -97 -57 -96 -48 -28 -190 75 -158 288 -504 713 -1160
l169 -260 584 0 585 0 3 1958 2 1957 1145 0 1145 0 0 -205 0 -205 -895 0 -895
0 0 -710 0 -710 1475 0 c811 0 1475 2 1475 5 0 3 -31 67 -69 143 -124 249
-159 375 -168 612 -6 177 8 289 56 427 98 283 336 514 643 622 172 60 207 64
648 71 482 9 2207 3 3105 -10z"/>
<path d="M710 6019 l0 -859 73 0 c133 0 741 30 827 40 272 33 511 170 640 366
155 237 159 630 9 880 -49 80 -189 212 -274 256 -144 75 -261 95 -820 138
-214 16 -405 32 -422 34 l-33 5 0 -860z m490 726 c492 -29 655 -61 787 -154
88 -63 198 -178 223 -233 11 -24 24 -78 31 -119 15 -95 6 -359 -15 -459 -23
-105 -77 -210 -142 -275 -158 -158 -569 -255 -1086 -255 l-168 0 0 755 0 755
58 0 c31 0 172 -7 312 -15z"/>
<path d="M5758 2235 c-69 -19 -131 -58 -162 -104 -32 -45 -55 -104 -56 -141 0
-36 -34 -86 -79 -117 -22 -16 -40 -33 -41 -39 0 -6 17 -22 38 -35 71 -46 75
-68 82 -380 5 -236 8 -279 22 -301 20 -31 62 -42 119 -33 31 5 43 13 51 33 7
17 14 141 17 323 5 259 8 298 24 322 11 17 26 27 43 27 13 0 40 6 58 14 77 32
36 116 -58 116 -12 0 -32 7 -44 16 -55 38 -4 124 104 176 77 37 113 72 98 96
-25 39 -127 52 -216 27z"/>
<path d="M12951 2226 c-22 -27 -32 -256 -29 -668 4 -442 6 -460 54 -472 61
-16 104 32 134 148 26 98 58 159 84 164 13 3 39 -19 85 -68 129 -142 187 -195
243 -222 57 -28 112 -36 123 -18 13 21 -64 139 -208 318 -87 108 -97 125 -85
140 7 9 49 57 92 107 102 117 148 185 149 227 2 27 -2 34 -21 36 -63 9 -212
-110 -389 -310 l-51 -57 -6 112 c-23 477 -28 525 -59 565 -13 17 -102 16 -116
-2z"/>
<path d="M6155 1908 c-12 -5 -26 -18 -33 -29 -24 -38 -35 -178 -36 -444 0
-229 2 -276 16 -307 18 -41 57 -56 100 -39 35 13 45 51 53 196 14 279 76 419
206 466 106 39 153 125 86 157 -40 19 -107 1 -201 -55 -41 -24 -80 -42 -86
-38 -6 3 -19 24 -30 45 -24 47 -47 61 -75 48z"/>
<path d="M6990 1913 c-19 -2 -57 -11 -83 -20 -40 -12 -52 -22 -63 -50 -31 -73
2 -92 130 -74 149 20 188 12 240 -50 33 -39 31 -75 -5 -101 -15 -11 -75 -29
-145 -43 -203 -40 -286 -84 -325 -169 -24 -53 -24 -93 1 -159 24 -64 69 -112
118 -128 22 -7 144 -13 300 -16 l262 -5 0 213 c-1 363 -18 460 -93 526 -60 52
-224 89 -337 76z m236 -478 c23 -15 26 -22 21 -57 -11 -81 -98 -158 -179 -158
-165 0 -204 175 -50 225 61 19 172 14 208 -10z"/>
<path d="M7707 1908 c-29 -21 -37 -117 -37 -423 0 -282 8 -371 33 -387 42 -27
90 16 106 93 6 30 18 126 26 214 23 243 45 301 138 354 87 50 111 40 146 -61
29 -83 42 -188 49 -394 9 -217 9 -218 102 -219 93 0 93 0 102 228 9 228 21
314 53 384 29 63 71 93 134 93 35 0 49 -6 76 -33 51 -51 68 -134 85 -402 12
-208 25 -248 82 -260 61 -14 63 -7 66 308 3 189 0 299 -8 335 -14 63 -53 107
-131 146 -66 32 -122 34 -232 4 -108 -28 -220 -28 -301 1 -79 28 -154 27 -241
-4 -86 -31 -139 -32 -158 -5 -7 10 -26 24 -41 30 -33 12 -29 12 -49 -2z"/>
<path d="M9983 1910 c-14 -6 -23 -18 -23 -30 0 -47 101 -413 170 -615 44 -131
64 -157 129 -175 88 -23 114 17 195 299 60 207 88 274 110 265 20 -8 38 -57
86 -239 73 -276 90 -307 178 -308 95 -1 119 33 202 288 138 426 152 542 63
520 -76 -18 -115 -87 -163 -289 -36 -151 -67 -253 -86 -280 -13 -18 -15 -17
-34 27 -12 26 -36 107 -55 181 -46 179 -80 266 -122 315 -47 56 -87 57 -133 4
-41 -46 -65 -101 -119 -268 -46 -142 -79 -217 -98 -223 -18 -5 -46 64 -83 205
-48 177 -85 266 -126 302 -36 32 -53 36 -91 21z"/>
<path d="M11575 1906 c-127 -31 -216 -107 -255 -219 -46 -130 -37 -315 22
-436 33 -68 105 -137 158 -152 71 -20 285 -17 343 5 60 23 129 99 157 173 76
205 22 498 -110 594 -60 44 -211 60 -315 35z m141 -135 c53 -32 105 -92 132
-149 22 -49 24 -64 19 -141 -8 -137 -49 -221 -127 -262 -42 -21 -141 -16 -183
10 -57 35 -90 113 -95 226 -7 162 37 253 151 309 61 31 63 31 103 7z"/>
<path d="M12315 1910 c-38 -14 -46 -37 -56 -162 -14 -163 -8 -595 9 -625 18
-32 48 -45 83 -38 51 11 59 37 69 212 5 87 16 183 24 213 36 128 109 232 174
245 52 11 97 40 114 74 50 100 -68 116 -213 28 -93 -56 -92 -56 -128 12 -19
38 -46 52 -76 41z"/>
<path d="M9319 1890 c-19 -10 -63 -48 -97 -84 -81 -87 -92 -125 -92 -311 0
-262 49 -354 209 -391 138 -33 446 6 446 56 0 28 -55 42 -203 50 -163 9 -217
24 -257 71 -27 32 -40 86 -31 122 11 44 44 50 299 55 l237 4 0 92 c0 58 -6
110 -16 139 -20 60 -84 132 -145 163 -107 54 -280 71 -350 34z m220 -120 c49
-25 113 -98 109 -125 -6 -39 -70 -59 -193 -59 -123 0 -155 10 -155 50 0 30 75
114 123 138 43 21 70 20 116 -4z"/>
</g>
</svg>
